<svg xmlns="http://www.w3.org/2000/svg" width="232" height="190" viewBox="0 0 232 190"><path fill-rule="evenodd" clip-rule="evenodd" fill="#FFA700" d="M34.083 134.95c0-11.33.118-22.66-.07-33.983-.06-3.553 1.195-5.904 3.953-8 22.806-17.312 45.53-34.73 68.317-52.07 7.083-5.39 11.904-5.043 19.1.415 21.98 16.67 43.982 33.312 66.167 49.706 4.615 3.41 6.56 7.033 6.455 12.9-.37 20.818-.107 41.646-.16 62.47-.028 10.987-5.768 19.06-15.5 21.84-1.883.536-3.924.7-5.895.714-10.994.076-21.992-.082-32.982.146-3.256.068-4.25-.71-4.21-4.068.177-15.49.024-30.984.102-46.477.034-6.81-2.74-11.895-8.708-15.127-4.746-2.57-27.165-2.545-31.88.05-5.715 3.144-8.73 7.99-8.725 14.614.012 15.494.01 30.986 0 46.48-.004 4.366-.03 4.4-4.205 4.407-10.33.02-20.662-.188-30.985.06-11.152.267-21.273-10.974-20.87-21.095.434-10.98.097-21.987.096-32.983z"/><path fill-rule="evenodd" clip-rule="evenodd" fill="#FFA700" d="M197.244 42.04c-.002 3.832.182 7.677-.064 11.494-.172 2.687.923 4.226 2.97 5.774 9.026 6.837 17.935 13.83 26.87 20.786 1.048.814 2.188 1.604 2.97 2.642 1.818 2.408 1.757 5.04-.05 7.39-1.797 2.337-4.28 3.194-7.09 1.925-1.342-.604-2.55-1.548-3.74-2.444-32.078-24.123-64.145-48.26-96.213-72.395-.4-.3-.79-.61-1.19-.91-5.327-3.976-6.132-3.99-11.318-.09-12.113 9.11-24.216 18.23-36.325 27.344-20.358 15.323-40.72 30.645-61.08 45.964-.93.7-1.82 1.48-2.827 2.053-3.088 1.76-6.615 1.056-8.43-1.595C.01 87.47.42 84.118 2.787 81.818c.714-.69 1.554-1.254 2.352-1.854 33-24.83 65.994-49.667 99.004-74.482 6.728-5.058 14.422-6.024 20-2.412 3.226 2.09 6.295 4.43 9.37 6.742 9.448 7.107 18.85 14.276 28.302 21.378 2.748 2.065 2.8 2 3.117-1.238.53-5.388 3.284-8.082 8.72-8.215 4.995-.12 10-.13 14.995.005 5.587.152 8.48 3.178 8.585 8.8.072 3.83.013 7.664.01 11.497z"/></svg>